<?xml version="1.0" standalone="no"?>
<!DOCTYPE svg PUBLIC "-//W3C//DTD SVG 20010904//EN"
 "http://www.w3.org/TR/2001/REC-SVG-20010904/DTD/svg10.dtd">
<svg version="1.0" xmlns="http://www.w3.org/2000/svg"
 width="100.000000pt" height="100.000000pt" viewBox="0 0 100.000000 100.000000"
 preserveAspectRatio="xMidYMid meet">

<g transform="translate(0.000000,100.000000) scale(0.100000,-0.100000)"
fill="#000000" stroke="none">
<path d="M471 611 c-12 -12 -21 -27 -21 -35 0 -8 -7 -16 -15 -20 -19 -7 -20
-26 0 -26 11 0 15 -17 17 -72 2 -57 6 -73 18 -73 11 0 16 17 20 70 l5 70 33 3
32 3 0 -58 c0 -68 15 -96 50 -91 30 4 37 24 10 31 -17 4 -20 13 -20 60 0 47 3
55 21 60 22 6 18 27 -6 27 -7 0 -15 10 -17 23 -4 28 -32 29 -36 0 -4 -25 -21
-34 -52 -26 -28 7 -22 37 8 41 13 2 21 9 19 15 -6 21 -45 19 -66 -2z"/>
<path d="M288 549 c-31 -18 -20 -27 30 -26 40 2 47 -1 50 -18 2 -18 -2 -20
-38 -17 -48 5 -70 -10 -70 -48 0 -48 47 -73 92 -49 15 8 22 8 28 -1 17 -27 30
4 30 70 0 49 -4 73 -16 84 -17 18 -80 21 -106 5z m70 -88 c21 -13 10 -46 -16
-49 -33 -5 -54 15 -41 39 10 20 35 24 57 10z"/>
<path d="M675 528 c-22 -26 -26 -39 -21 -67 10 -64 81 -101 137 -71 34 19 22
32 -22 25 -31 -5 -45 -3 -60 11 -10 9 -19 21 -19 25 0 4 30 9 68 11 65 3 67 4
64 28 -4 40 -40 70 -83 70 -30 0 -43 -7 -64 -32z m103 -10 c22 -22 13 -28 -38
-28 -48 0 -50 1 -40 20 12 23 59 27 78 8z"/>
<path d="M852 475 c3 -96 21 -116 26 -29 3 50 6 57 32 72 31 17 40 42 17 42
-7 0 -19 -6 -26 -12 -11 -10 -14 -10 -18 0 -3 6 -11 12 -19 12 -12 0 -14 -16
-12 -85z"/>
<path d="M66 491 c-4 -5 -2 -12 3 -15 5 -4 12 -2 15 3 4 5 2 12 -3 15 -5 4
-12 2 -15 -3z"/>
<path d="M196 483 c-6 -14 -5 -15 5 -6 7 7 10 15 7 18 -3 3 -9 -2 -12 -12z"/>
</g>
</svg>
