<?xml version="1.0" standalone="no"?>
<!DOCTYPE svg PUBLIC "-//W3C//DTD SVG 20010904//EN"
 "http://www.w3.org/TR/2001/REC-SVG-20010904/DTD/svg10.dtd">
<svg version="1.0" xmlns="http://www.w3.org/2000/svg"
 width="377.000000pt" height="155.000000pt" viewBox="0 0 377.000000 155.000000"
 preserveAspectRatio="xMidYMid meet">

<g transform="translate(0.000000,155.000000) scale(0.100000,-0.100000)"
fill="#4A86E8" stroke="none">
<path d="M549 1201 c-124 -52 -209 -146 -248 -275 -27 -88 -26 -133 3 -229 34
-111 99 -191 201 -247 227 -126 523 -2 593 249 9 31 20 59 26 63 6 4 349 8
762 8 590 0 754 -3 761 -12 6 -7 20 -43 33 -81 80 -243 367 -350 595 -221 67
38 135 110 171 181 27 54 29 66 29 178 l0 120 -38 69 c-127 230 -402 297 -610
148 -70 -51 -117 -114 -147 -200 l-28 -77 -769 -3 -769 -2 -14 52 c-31 126
-120 225 -247 278 -99 41 -207 42 -304 1z"/>
</g>
</svg>
