<svg version="1.1" id="Layer_1" xmlns="http://www.w3.org/2000/svg" xmlns:xlink="http://www.w3.org/1999/xlink" x="0px" y="0px"
	 width="100%" viewBox="0 0 5148 1368" enable-background="new 0 0 5148 1368" xml:space="preserve">
<path fill="#47704C" opacity="1.000000" stroke="none" 
	d="
M3722.000000,1370.000000 
	C2481.333496,1370.000000 1241.667114,1370.000000 2.000499,1370.000000 
	C2.000333,914.000305 2.000333,458.000610 2.000166,2.000682 
	C1717.999390,2.000455 3433.998779,2.000455 5149.998535,2.000227 
	C5149.999023,457.999298 5149.999023,913.998596 5149.999512,1369.999023 
	C4674.333496,1370.000000 4198.666504,1370.000000 3722.000000,1370.000000 
M1295.176392,760.614075 
	C1295.070801,761.090393 1295.135010,761.544495 1297.316895,762.148376 
	C1299.982300,762.197937 1302.647705,762.290710 1305.313110,762.290894 
	C1456.955933,762.301086 1608.599121,762.406067 1760.241333,762.113464 
	C1772.451050,762.089905 1784.861084,760.270813 1796.824219,757.662720 
	C1834.720703,749.400757 1867.403931,731.148315 1892.564575,701.580627 
	C1911.748535,679.036621 1928.899048,654.763611 1946.984375,631.283020 
	C1957.056152,618.206665 1957.258911,593.861450 1946.455078,579.570679 
	C1944.726318,577.283752 1943.139404,574.889587 1940.745972,571.494080 
	C1945.162964,569.923584 1948.476074,568.630127 1951.859863,567.560120 
	C1989.241943,555.739624 2019.707031,534.047241 2043.543945,503.043884 
	C2057.554932,484.820648 2071.313965,466.402771 2085.069580,447.985107 
	C2087.447754,444.800781 2089.507812,441.310486 2091.262207,437.739288 
	C2102.485352,414.893860 2095.672852,386.794983 2075.627197,371.169037 
	C2063.268555,361.535187 2048.954590,359.712952 2034.094482,359.709656 
	C1892.116699,359.678101 1750.139038,359.734589 1608.161377,359.564667 
	C1600.457397,359.555450 1595.297119,361.837036 1590.555664,368.167816 
	C1537.633423,438.831238 1484.428589,509.283081 1431.299194,579.791382 
	C1385.988403,639.923462 1340.676758,700.054871 1295.176392,760.614075 
M149.711914,652.163025 
	C150.366669,662.446838 150.596375,672.778381 151.746277,683.006531 
	C158.414597,742.320923 178.536774,796.892273 210.871765,846.910339 
	C220.421600,861.682678 231.297470,875.597839 242.081070,890.623962 
	C240.349243,894.571533 238.370728,899.113770 236.366425,903.644714 
	C219.367996,942.071777 204.164230,981.170837 193.587952,1021.896179 
	C183.096100,1062.296875 175.256546,1103.032837 180.044922,1145.181396 
	C181.637024,1159.195557 184.562485,1172.808105 190.223022,1185.702881 
	C200.527832,1209.177490 217.199921,1225.890259 242.295090,1233.181030 
	C254.627899,1236.764038 267.307526,1237.061035 279.972198,1235.973145 
	C312.851318,1233.148071 342.782043,1221.042725 371.009705,1204.927490 
	C433.953400,1168.992676 484.990173,1119.937988 526.675110,1060.906982 
	C528.290588,1058.619263 529.527710,1056.064331 530.941101,1053.633789 
	C527.273743,1053.992065 524.983398,1055.569946 522.844727,1057.331787 
	C496.313080,1079.190186 468.483948,1099.220337 438.637665,1116.315186 
	C410.745178,1132.290894 381.892548,1146.285889 349.314178,1149.089966 
	C317.777283,1151.804565 292.194519,1138.287964 283.545380,1105.325317 
	C278.989014,1087.960571 278.877228,1070.395874 280.999023,1052.779297 
	C284.801849,1021.205811 293.611633,990.857971 304.235809,960.994080 
	C305.325043,957.932373 306.834595,955.020264 308.613831,950.984680 
	C313.785645,954.412842 318.138123,957.315063 322.507477,960.191589 
	C404.162048,1013.948059 493.955505,1033.657837 590.308105,1021.153198 
	C670.078918,1010.800537 740.059631,977.720459 799.516418,923.083008 
	C802.589600,920.258911 806.023438,917.827271 810.241089,914.451111 
	C813.898560,921.083618 817.110046,926.446533 819.861145,932.036133 
	C822.239807,936.869019 825.707275,938.878601 831.058655,938.293396 
	C838.328857,937.498291 845.621948,936.835327 852.922180,936.403992 
	C887.784668,934.344360 922.645264,932.232483 957.521545,930.430908 
	C987.753418,928.869141 1018.002319,927.623352 1048.249390,926.374878 
	C1082.490234,924.961548 1116.735474,923.646240 1150.982300,922.388184 
	C1189.221436,920.983459 1227.464233,919.678711 1265.706177,918.354431 
	C1285.659668,917.663391 1305.612427,916.923645 1325.570190,916.385315 
	C1354.188599,915.613342 1382.812256,915.037476 1411.432007,914.317688 
	C1436.387695,913.690125 1461.343628,913.056030 1486.292603,912.219543 
	C1489.894043,912.098755 1494.111328,912.886902 1497.996826,908.284363 
	C1493.132446,906.594299 1489.272949,904.690002 1485.201904,903.953308 
	C1476.043457,902.295959 1466.817261,900.794678 1457.552734,899.980591 
	C1426.746948,897.273987 1395.899780,895.042236 1365.091797,892.359436 
	C1328.648438,889.185974 1292.199707,886.024597 1255.806152,882.336792 
	C1191.518311,875.822388 1127.780151,865.731628 1064.670776,851.778259 
	C1009.003418,839.470337 954.232422,824.115906 901.009460,803.523987 
	C897.755310,802.264954 894.653137,800.612793 890.889343,798.869934 
	C929.251587,711.142212 937.109070,621.868408 911.455078,530.614197 
	C885.773621,439.261993 832.157043,367.411743 753.251831,312.488098 
	C774.614441,290.654175 795.448364,269.707794 817.021790,249.485458 
	C838.638855,229.222244 860.011658,208.691299 881.915955,188.743820 
	C903.605774,168.991714 925.825623,149.821579 947.812927,130.396164 
	C945.584106,129.426132 944.388977,129.806351 943.367493,130.458603 
	C915.296631,148.383118 886.943054,165.885696 859.254517,184.383484 
	C812.410278,215.678589 767.711731,249.900833 724.477356,286.006042 
	C719.313477,290.318359 715.314636,290.368652 709.297791,287.721222 
	C691.643250,279.953186 673.939941,272.023071 655.636841,266.054321 
	C604.330811,249.323044 551.659912,244.204254 497.902527,249.606949 
	C452.695923,254.150238 409.657562,266.124146 368.767792,285.856049 
	C323.544098,307.679413 284.029938,337.104309 250.155914,374.254761 
	C204.479385,424.349274 174.291016,482.499115 158.542923,548.273499 
	C152.007050,575.571655 149.815872,603.442505 148.433197,631.375305 
	C148.156189,636.971741 149.028641,642.625061 149.294128,648.983459 
	C149.319092,649.493591 149.490845,649.948303 149.711914,652.163025 
M2220.296631,423.321747 
	C2218.612061,425.387085 2216.857910,427.399719 2215.253174,429.525299 
	C2172.291016,486.432251 2129.333740,543.342957 2086.399658,600.271179 
	C2068.142822,624.478821 2050.025146,648.792053 2031.682007,672.934021 
	C2019.745605,688.643738 2015.985474,706.082458 2021.726685,724.783142 
	C2029.054443,748.652039 2048.802002,762.267944 2074.783936,762.282227 
	C2193.779541,762.347778 2312.779541,762.928589 2431.768311,762.027161 
	C2485.568604,761.619629 2531.161133,739.717712 2565.715332,698.552490 
	C2592.460693,666.690125 2616.633301,632.659912 2641.771240,599.458374 
	C2675.761475,554.564697 2709.604248,509.559143 2743.449463,464.555969 
	C2749.051514,457.107239 2755.040527,449.825134 2759.654541,441.779968 
	C2777.998535,409.793549 2761.425049,369.030396 2724.087646,361.367035 
	C2717.942383,360.105774 2711.516602,359.762970 2705.219727,359.757751 
	C2592.890625,359.665039 2480.561768,359.682739 2368.232666,359.695404 
	C2342.378906,359.698303 2317.102539,363.038177 2292.827393,372.503662 
	C2264.959717,383.369934 2241.339355,400.261230 2220.296631,423.321747 
M4934.987305,498.304230 
	C4942.987305,498.280396 4951.008301,498.578552 4958.977051,498.066895 
	C4961.970703,497.874664 4965.936523,496.635559 4967.599121,494.455505 
	C4981.329590,476.451965 4996.055176,458.980957 5007.718750,439.679932 
	C5025.922363,409.556641 5007.428223,369.473236 4973.001465,361.868103 
	C4965.281738,360.162903 4957.144043,359.797089 4949.195801,359.773163 
	C4892.529785,359.602692 4835.863281,359.601074 4779.196777,359.701843 
	C4720.203613,359.806732 4661.197266,359.363586 4602.221680,360.493652 
	C4543.228516,361.623962 4495.456543,386.831390 4459.687012,433.460785 
	C4413.854980,493.207733 4368.895996,553.624939 4323.596680,613.780273 
	C4307.562500,635.072327 4291.089844,656.062195 4275.809082,677.884766 
	C4259.962891,700.515015 4263.964844,730.136536 4284.337891,748.688660 
	C4295.202148,758.581604 4308.229004,762.399963 4322.895020,762.382080 
	C4438.895020,762.240601 4554.894531,762.262817 4670.894531,762.322083 
	C4733.907715,762.354309 4784.277832,736.953552 4822.592285,687.230225 
	C4835.401367,670.606506 4848.073242,653.873108 4860.554199,637.002136 
	C4864.071289,632.247375 4868.141602,630.135376 4874.042480,630.265076 
	C4885.702637,630.521423 4897.374512,630.247314 4909.040527,630.306030 
	C4913.603027,630.329041 4917.418945,629.348877 4920.374023,625.386902 
	C4938.503418,601.081665 4956.782715,576.888306 4974.916016,552.585876 
	C4975.962891,551.183350 4976.166504,549.151428 4977.135742,546.322998 
	C4972.234863,546.077454 4968.332031,545.712769 4964.429199,545.711243 
	C4883.095703,545.678833 4801.762207,545.833801 4720.430176,545.484070 
	C4711.323730,545.444885 4705.808594,548.688782 4700.604980,555.728577 
	C4675.848145,589.221802 4650.554688,622.318481 4625.689453,655.732422 
	C4614.711426,670.484924 4600.397461,677.838867 4582.044922,677.709656 
	C4564.712402,677.587585 4547.378418,677.693848 4530.045410,677.677002 
	C4522.916992,677.670105 4515.838379,677.503601 4511.960938,669.896118 
	C4508.017578,662.159973 4512.452148,656.564392 4516.744141,650.891418 
	C4537.853027,622.990051 4558.978516,595.100281 4580.033203,567.157593 
	C4605.098145,533.892700 4630.138672,500.609253 4655.103516,467.269196 
	C4664.557129,454.644989 4676.342773,446.198822 4692.600098,445.414368 
	C4702.233398,444.949524 4711.874023,444.505676 4721.515625,444.365875 
	C4732.178711,444.211243 4742.869629,443.988525 4753.507812,444.555786 
	C4772.263184,445.555878 4773.792480,460.101074 4765.564453,469.917358 
	C4760.221191,476.292114 4755.434082,483.142639 4750.581543,489.911865 
	C4749.164062,491.889374 4748.378418,494.320038 4746.451660,498.304535 
	C4809.823730,498.304535 4871.408691,498.304535 4934.987305,498.304230 
M3929.160645,762.304443 
	C3977.143311,762.303162 4025.128418,762.064270 4073.106934,762.504822 
	C4082.487549,762.590942 4088.665039,759.731201 4093.818848,752.001160 
	C4100.088867,742.597046 4107.426270,733.908081 4114.238281,724.861755 
	C4178.752441,639.183594 4243.250977,553.493164 4307.760254,467.810913 
	C4331.800781,435.879181 4355.880859,403.976471 4379.875000,372.009460 
	C4382.327637,368.741699 4384.310547,365.120941 4387.272461,360.468353 
	C4382.416016,360.115295 4379.482910,359.719025 4376.549805,359.716400 
	C4334.898926,359.679108 4293.247070,359.790558 4251.597168,359.600311 
	C4244.980957,359.570129 4240.440918,361.681885 4236.444336,367.089111 
	C4219.222168,390.391907 4201.609375,413.405975 4184.183594,436.559235 
	C4155.541504,474.616852 4126.950195,512.712585 4098.283203,550.751587 
	C4096.038574,553.729126 4093.372803,556.389099 4089.563477,560.719482 
	C4087.413574,552.360107 4085.734131,546.345825 4084.324463,540.268860 
	C4071.229492,483.826019 4058.214111,427.364655 4045.090332,370.928528 
	C4042.507568,359.822266 4042.338379,359.727539 4031.260986,359.716034 
	C3980.946533,359.663788 3930.631348,359.820923 3880.318359,359.555878 
	C3872.815186,359.516357 3868.053955,362.150757 3863.683594,368.116852 
	C3848.726074,388.535797 3833.241211,408.567749 3818.011963,428.788269 
	C3770.320557,492.111389 3722.666748,555.462524 3674.973877,618.784546 
	C3642.109619,662.418945 3609.192871,706.013672 3576.344482,749.659851 
	C3573.854980,752.967224 3571.721924,756.542847 3568.543213,761.314819 
	C3573.345215,761.760437 3576.211670,762.254822 3579.078369,762.258179 
	C3620.729492,762.306763 3662.381104,762.172180 3704.030762,762.402039 
	C3711.068359,762.440857 3715.762939,760.048706 3719.928223,754.392578 
	C3735.134766,733.742798 3750.775391,713.413330 3766.198486,692.922546 
	C3796.645508,652.471252 3827.046875,611.985840 3857.504639,571.542542 
	C3859.364502,569.072632 3861.551025,566.848572 3864.673096,563.259888 
	C3866.139404,568.739990 3867.168457,572.183411 3867.979248,575.677429 
	C3881.228516,632.768188 3894.385498,689.880432 3907.720703,746.950989 
	C3911.468750,762.990906 3908.761963,762.218811 3929.160645,762.304443 
M2960.900879,633.919739 
	C2966.963623,625.973572 2973.569824,618.374390 2978.929443,609.979431 
	C2983.866699,602.246094 2990.139160,600.051636 2998.960693,600.158020 
	C3032.615479,600.563782 3066.277832,600.321411 3099.937500,600.318298 
	C3132.263916,600.315308 3164.590820,600.242554 3196.916748,600.363525 
	C3202.912598,600.385986 3207.672119,599.260864 3211.584961,593.952698 
	C3228.583496,570.891785 3245.967529,548.115295 3263.131104,525.175354 
	C3264.597900,523.214905 3265.473633,520.812317 3267.634521,516.684509 
	C3251.704834,516.057068 3237.515869,516.398987 3223.348877,516.340759 
	C3209.018799,516.281860 3194.688477,516.327820 3180.358154,516.327820 
	C3166.361084,516.327820 3152.364014,516.327820 3138.366943,516.327820 
	C3124.036621,516.327820 3109.705811,516.409790 3095.376221,516.304565 
	C3081.225098,516.200745 3067.039307,516.789185 3052.484131,515.892517 
	C3052.934814,513.628235 3052.833984,512.483337 3053.346924,511.797791 
	C3069.111572,490.728729 3084.833496,469.625122 3100.900635,448.787750 
	C3102.645264,446.524872 3106.305908,445.212646 3109.312744,444.586090 
	C3112.832520,443.852661 3116.609375,444.324249 3120.274902,444.323761 
	C3184.594727,444.314972 3248.914795,444.206482 3313.233643,444.451569 
	C3320.989502,444.481110 3326.235107,442.150269 3330.850342,435.825317 
	C3346.950928,413.759094 3363.547852,392.055420 3379.896484,370.169556 
	C3381.785156,367.641571 3383.300537,364.834808 3385.946533,360.639191 
	C3380.938721,360.220001 3377.777100,359.724701 3374.615234,359.723846 
	C3235.311279,359.686249 3096.007080,359.742065 2956.703369,359.555389 
	C2949.243896,359.545380 2944.433594,361.998749 2939.986328,367.915741 
	C2843.910400,495.742920 2747.669922,623.446228 2651.489746,751.195312 
	C2649.379395,753.998840 2647.605713,757.056030 2644.558838,761.693298 
	C2651.131104,761.949829 2655.643799,762.279053 2660.156250,762.279968 
	C2796.460938,762.307251 2932.765381,762.302551 3069.070068,762.299744 
	C3072.069336,762.299683 3075.070312,762.188904 3078.067383,762.262024 
	C3082.362793,762.366821 3085.722900,760.913147 3088.382568,757.354858 
	C3106.531006,733.071655 3124.793701,708.873840 3142.922607,684.576050 
	C3143.967529,683.175598 3144.161865,681.140686 3145.329834,677.698303 
	C3139.529785,677.698303 3134.970703,677.698425 3130.411621,677.698364 
	C3068.424805,677.697449 3006.437744,677.710938 2944.450928,677.663330 
	C2940.291260,677.660095 2936.131836,677.193848 2929.463867,676.791687 
	C2939.970947,661.167542 2950.374756,648.370850 2960.900879,633.919739 
M3469.549316,414.549866 
	C3450.881592,439.278503 3432.186035,463.986115 3413.551025,488.739594 
	C3365.658691,552.356628 3317.800537,615.999207 3269.914551,679.620728 
	C3252.282959,703.046265 3234.570312,726.411255 3217.002930,749.884827 
	C3214.587891,753.111755 3212.801025,756.808655 3209.952881,761.577881 
	C3215.248535,761.899048 3218.523193,762.269287 3221.797607,762.270874 
	C3287.457031,762.303711 3353.116699,762.180176 3418.774902,762.447693 
	C3426.346191,762.478638 3431.089600,759.839722 3435.387451,753.865967 
	C3445.891357,739.266052 3456.966309,725.077576 3467.790039,710.707275 
	C3553.382812,597.069763 3638.974365,483.431152 3724.534912,369.769440 
	C3726.445557,367.231201 3727.989990,364.417419 3730.466797,360.540039 
	C3725.996338,360.166687 3723.124512,359.719055 3720.252686,359.717468 
	C3653.593506,359.680786 3586.933838,359.781342 3520.275391,359.566315 
	C3513.118408,359.543213 3508.650879,362.183594 3504.570801,367.824646 
	C3493.443359,383.209656 3481.802490,398.223236 3469.549316,414.549866 
M534.996216,1049.081055 
	C534.664062,1048.885254 534.331848,1048.689575 533.999695,1048.493774 
	C534.195618,1048.775513 534.391541,1049.057251 534.996216,1049.081055 
z"/>
<path fill="#ADACAD" opacity="1.000000" stroke="none" 
	d="
M149.371094,648.252197 
	C149.028641,642.625061 148.156189,636.971741 148.433197,631.375305 
	C149.815872,603.442505 152.007050,575.571655 158.542923,548.273499 
	C174.291016,482.499115 204.479385,424.349274 250.155914,374.254761 
	C284.029938,337.104309 323.544098,307.679413 368.767792,285.856049 
	C409.657562,266.124146 452.695923,254.150238 497.902527,249.606949 
	C551.659912,244.204254 604.330811,249.323044 655.636841,266.054321 
	C673.939941,272.023071 691.643250,279.953186 709.297791,287.721222 
	C715.314636,290.368652 719.313477,290.318359 724.477356,286.006042 
	C767.711731,249.900833 812.410278,215.678589 859.254517,184.383484 
	C886.943054,165.885696 915.296631,148.383118 943.367493,130.458603 
	C944.388977,129.806351 945.584106,129.426132 947.812927,130.396164 
	C925.825623,149.821579 903.605774,168.991714 881.915955,188.743820 
	C860.011658,208.691299 838.638855,229.222244 817.021790,249.485458 
	C795.448364,269.707794 774.614441,290.654175 753.251831,312.488098 
	C832.157043,367.411743 885.773621,439.261993 911.455078,530.614197 
	C937.109070,621.868408 929.251587,711.142212 890.889343,798.869934 
	C894.653137,800.612793 897.755310,802.264954 901.009460,803.523987 
	C954.232422,824.115906 1009.003418,839.470337 1064.670776,851.778259 
	C1127.780151,865.731628 1191.518311,875.822388 1255.806152,882.336792 
	C1292.199707,886.024597 1328.648438,889.185974 1365.091797,892.359436 
	C1395.899780,895.042236 1426.746948,897.273987 1457.552734,899.980591 
	C1466.817261,900.794678 1476.043457,902.295959 1485.201904,903.953308 
	C1489.272949,904.690002 1493.132446,906.594299 1497.996826,908.284363 
	C1494.111328,912.886902 1489.894043,912.098755 1486.292603,912.219543 
	C1461.343628,913.056030 1436.387695,913.690125 1411.432007,914.317688 
	C1382.812256,915.037476 1354.188599,915.613342 1325.570190,916.385315 
	C1305.612427,916.923645 1285.659668,917.663391 1265.706177,918.354431 
	C1227.464233,919.678711 1189.221436,920.983459 1150.982300,922.388184 
	C1116.735474,923.646240 1082.490234,924.961548 1048.249390,926.374878 
	C1018.002319,927.623352 987.753418,928.869141 957.521545,930.430908 
	C922.645264,932.232483 887.784668,934.344360 852.922180,936.403992 
	C845.621948,936.835327 838.328857,937.498291 831.058655,938.293396 
	C825.707275,938.878601 822.239807,936.869019 819.861145,932.036133 
	C817.110046,926.446533 813.898560,921.083618 810.241089,914.451111 
	C806.023438,917.827271 802.589600,920.258911 799.516418,923.083008 
	C740.059631,977.720459 670.078918,1010.800537 590.308105,1021.153198 
	C493.955505,1033.657837 404.162048,1013.948059 322.507477,960.191589 
	C318.138123,957.315063 313.785645,954.412842 308.613831,950.984680 
	C306.834595,955.020264 305.325043,957.932373 304.235809,960.994080 
	C293.611633,990.857971 284.801849,1021.205811 280.999023,1052.779297 
	C278.877228,1070.395874 278.989014,1087.960571 283.545380,1105.325317 
	C292.194519,1138.287964 317.777283,1151.804565 349.314178,1149.089966 
	C381.892548,1146.285889 410.745178,1132.290894 438.637665,1116.315186 
	C468.483948,1099.220337 496.313080,1079.190186 522.844727,1057.331787 
	C524.983398,1055.569946 527.273743,1053.992065 530.941101,1053.633789 
	C529.527710,1056.064331 528.290588,1058.619263 526.675110,1060.906982 
	C484.990173,1119.937988 433.953400,1168.992676 371.009705,1204.927490 
	C342.782043,1221.042725 312.851318,1233.148071 279.972198,1235.973145 
	C267.307526,1237.061035 254.627899,1236.764038 242.295090,1233.181030 
	C217.199921,1225.890259 200.527832,1209.177490 190.223022,1185.702881 
	C184.562485,1172.808105 181.637024,1159.195557 180.044922,1145.181396 
	C175.256546,1103.032837 183.096100,1062.296875 193.587952,1021.896179 
	C204.164230,981.170837 219.367996,942.071777 236.366425,903.644714 
	C238.370728,899.113770 240.349243,894.571533 242.081070,890.623962 
	C231.297470,875.597839 220.421600,861.682678 210.871765,846.910339 
	C178.536774,796.892273 158.414597,742.320923 151.746277,683.006531 
	C150.596375,672.778381 150.366669,662.446838 149.777039,650.889343 
	C149.805496,649.119568 149.648483,648.665039 149.371094,648.252197 
M734.154846,770.912842 
	C719.399231,743.305664 704.616516,715.712830 689.954529,688.055969 
	C689.060730,686.369934 689.124207,684.176514 688.742249,682.219116 
	C689.335876,681.814819 689.929504,681.410522 690.523132,681.006226 
	C715.935547,703.020264 742.664673,723.248779 771.365417,740.637939 
	C800.279175,758.156128 829.901978,774.382385 861.344788,786.862854 
	C938.492004,631.714905 881.432434,427.492859 731.216553,336.384918 
	C727.837341,339.731903 724.174988,343.080597 720.828796,346.720032 
	C702.583923,366.563965 684.126221,386.222534 666.276428,406.417572 
	C608.032837,472.313812 552.491760,540.399658 501.118103,611.828674 
	C439.180267,697.946045 382.307129,787.136047 336.674896,883.130188 
	C330.865295,895.351440 325.535736,907.800903 320.024841,920.053345 
	C322.451782,922.255127 323.808380,923.721008 325.388092,924.883972 
	C352.098663,944.548523 380.968597,960.263794 412.032257,971.889832 
	C467.348419,992.592651 524.373108,999.018738 582.911865,991.681580 
	C619.504395,987.095032 654.563232,977.002197 687.983154,961.277832 
	C724.765076,943.971558 757.804993,921.310181 787.013000,893.010193 
	C794.948914,885.320984 795.141418,885.392822 789.798401,875.374023 
	C771.464539,840.995789 753.164246,806.599548 734.154846,770.912842 
M300.501678,779.531982 
	C404.844940,602.797852 537.156860,449.409485 691.167725,313.717834 
	C556.814941,244.789642 352.964142,269.803253 239.937485,436.823822 
	C183.843277,519.714783 167.717178,611.555786 186.556564,709.659485 
	C198.994690,774.429260 240.129303,843.757324 257.596832,856.692017 
	C271.675873,831.394287 285.747528,806.109802 300.501678,779.531982 
z"/>
<path fill="#3277BD" opacity="1.000000" stroke="none" 
	d="
M1295.365479,760.186523 
	C1340.676758,700.054871 1385.988403,639.923462 1431.299194,579.791382 
	C1484.428589,509.283081 1537.633423,438.831238 1590.555664,368.167816 
	C1595.297119,361.837036 1600.457397,359.555450 1608.161377,359.564667 
	C1750.139038,359.734589 1892.116699,359.678101 2034.094482,359.709656 
	C2048.954590,359.712952 2063.268555,361.535187 2075.627197,371.169037 
	C2095.672852,386.794983 2102.485352,414.893860 2091.262207,437.739288 
	C2089.507812,441.310486 2087.447754,444.800781 2085.069580,447.985107 
	C2071.313965,466.402771 2057.554932,484.820648 2043.543945,503.043884 
	C2019.707031,534.047241 1989.241943,555.739624 1951.859863,567.560120 
	C1948.476074,568.630127 1945.162964,569.923584 1940.745972,571.494080 
	C1943.139404,574.889587 1944.726318,577.283752 1946.455078,579.570679 
	C1957.258911,593.861450 1957.056152,618.206665 1946.984375,631.283020 
	C1928.899048,654.763611 1911.748535,679.036621 1892.564575,701.580627 
	C1867.403931,731.148315 1834.720703,749.400757 1796.824219,757.662720 
	C1784.861084,760.270813 1772.451050,762.089905 1760.241333,762.113464 
	C1608.599121,762.406067 1456.955933,762.301086 1305.313110,762.290894 
	C1302.647705,762.290710 1299.982300,762.197937 1296.344360,761.615967 
	C1295.371826,761.083496 1295.365356,760.186523 1295.365479,760.186523 
M1625.206177,616.179443 
	C1611.066406,635.087524 1596.915039,653.987122 1582.834351,672.939087 
	C1582.340698,673.603455 1582.548828,674.789246 1582.325684,676.556702 
	C1584.987427,676.950378 1587.471436,677.630310 1589.957275,677.637268 
	C1615.579224,677.709412 1641.202881,677.836426 1666.823120,677.606384 
	C1682.743774,677.463501 1695.796265,670.896790 1705.653076,658.339172 
	C1711.402832,651.013916 1716.923950,643.509033 1722.532959,636.073669 
	C1725.537964,632.090271 1728.663696,628.186768 1731.470337,624.067017 
	C1738.918945,613.134155 1735.223389,604.069031 1722.106934,601.291016 
	C1718.567505,600.541382 1714.853516,600.378784 1711.217529,600.361023 
	C1692.583740,600.269897 1673.948853,600.253235 1655.314941,600.326721 
	C1632.485840,600.416809 1638.474365,598.852356 1625.206177,616.179443 
M1835.799194,444.468079 
	C1811.829346,444.421326 1787.856567,444.566559 1763.891479,444.204773 
	C1757.153320,444.103088 1752.618408,446.542786 1748.735229,451.788727 
	C1735.075928,470.241516 1721.174194,488.514648 1707.450317,506.920105 
	C1705.777832,509.163269 1704.628418,511.796387 1702.923584,514.799927 
	C1705.284668,515.461609 1706.509277,516.106934 1707.731812,516.103149 
	C1736.353882,516.014771 1764.980835,516.117493 1793.595459,515.578796 
	C1804.649658,515.370667 1814.631592,510.657440 1821.839233,502.372437 
	C1831.863525,490.849915 1841.306885,478.752014 1850.153564,466.299927 
	C1856.027832,458.031647 1852.175049,449.209351 1842.381104,445.811157 
	C1840.817627,445.268707 1839.149780,445.027161 1835.799194,444.468079 
z"/>
<path fill="#3277BD" opacity="1.000000" stroke="none" 
	d="
M2220.783203,422.808289 
	C2241.339355,400.261230 2264.959717,383.369934 2292.827393,372.503662 
	C2317.102539,363.038177 2342.378906,359.698303 2368.232666,359.695404 
	C2480.561768,359.682739 2592.890625,359.665039 2705.219727,359.757751 
	C2711.516602,359.762970 2717.942383,360.105774 2724.087646,361.367035 
	C2761.425049,369.030396 2777.998535,409.793549 2759.654541,441.779968 
	C2755.040527,449.825134 2749.051514,457.107239 2743.449463,464.555969 
	C2709.604248,509.559143 2675.761475,554.564697 2641.771240,599.458374 
	C2616.633301,632.659912 2592.460693,666.690125 2565.715332,698.552490 
	C2531.161133,739.717712 2485.568604,761.619629 2431.768311,762.027161 
	C2312.779541,762.928589 2193.779541,762.347778 2074.783936,762.282227 
	C2048.802002,762.267944 2029.054443,748.652039 2021.726685,724.783142 
	C2015.985474,706.082458 2019.745605,688.643738 2031.682007,672.934021 
	C2050.025146,648.792053 2068.142822,624.478821 2086.399658,600.271179 
	C2129.333740,543.342957 2172.291016,486.432251 2215.253174,429.525299 
	C2216.857910,427.399719 2218.612061,425.387085 2220.783203,422.808289 
M2390.454346,639.453308 
	C2432.344971,583.842529 2474.237549,528.233215 2516.119629,472.615845 
	C2517.921631,470.223053 2519.877197,467.896515 2521.326660,465.296844 
	C2525.958252,456.989410 2522.305908,448.373932 2513.029541,445.761627 
	C2510.175781,444.957947 2507.138916,444.447052 2504.181641,444.426666 
	C2487.187256,444.309448 2470.188477,444.188934 2453.196533,444.436005 
	C2432.820801,444.732300 2416.743652,452.822540 2405.407471,470.399506 
	C2399.107178,480.167755 2391.375244,489.008484 2384.353760,498.316223 
	C2352.054443,541.131836 2319.761719,583.952515 2287.505371,626.800537 
	C2280.293701,636.380127 2272.896484,645.847107 2266.207031,655.784790 
	C2259.685303,665.472656 2264.203613,675.228210 2275.608154,677.302734 
	C2277.235352,677.598694 2278.925537,677.642151 2280.586426,677.643921 
	C2299.581543,677.664246 2318.581055,677.912598 2337.570068,677.572693 
	C2353.850098,677.281189 2367.129639,670.505554 2376.993408,657.368958 
	C2381.194092,651.774902 2385.422119,646.201355 2390.454346,639.453308 
z"/>
<path fill="#3277BD" opacity="1.000000" stroke="none" 
	d="
M4933.990234,498.304382 
	C4871.408691,498.304535 4809.823730,498.304535 4746.451660,498.304535 
	C4748.378418,494.320038 4749.164062,491.889374 4750.581543,489.911865 
	C4755.434082,483.142639 4760.221191,476.292114 4765.564453,469.917358 
	C4773.792480,460.101074 4772.263184,445.555878 4753.507812,444.555786 
	C4742.869629,443.988525 4732.178711,444.211243 4721.515625,444.365875 
	C4711.874023,444.505676 4702.233398,444.949524 4692.600098,445.414368 
	C4676.342773,446.198822 4664.557129,454.644989 4655.103516,467.269196 
	C4630.138672,500.609253 4605.098145,533.892700 4580.033203,567.157593 
	C4558.978516,595.100281 4537.853027,622.990051 4516.744141,650.891418 
	C4512.452148,656.564392 4508.017578,662.159973 4511.960938,669.896118 
	C4515.838379,677.503601 4522.916992,677.670105 4530.045410,677.677002 
	C4547.378418,677.693848 4564.712402,677.587585 4582.044922,677.709656 
	C4600.397461,677.838867 4614.711426,670.484924 4625.689453,655.732422 
	C4650.554688,622.318481 4675.848145,589.221802 4700.604980,555.728577 
	C4705.808594,548.688782 4711.323730,545.444885 4720.430176,545.484070 
	C4801.762207,545.833801 4883.095703,545.678833 4964.429199,545.711243 
	C4968.332031,545.712769 4972.234863,546.077454 4977.135742,546.322998 
	C4976.166504,549.151428 4975.962891,551.183350 4974.916016,552.585876 
	C4956.782715,576.888306 4938.503418,601.081665 4920.374023,625.386902 
	C4917.418945,629.348877 4913.603027,630.329041 4909.040527,630.306030 
	C4897.374512,630.247314 4885.702637,630.521423 4874.042480,630.265076 
	C4868.141602,630.135376 4864.071289,632.247375 4860.554199,637.002136 
	C4848.073242,653.873108 4835.401367,670.606506 4822.592285,687.230225 
	C4784.277832,736.953552 4733.907715,762.354309 4670.894531,762.322083 
	C4554.894531,762.262817 4438.895020,762.240601 4322.895020,762.382080 
	C4308.229004,762.399963 4295.202148,758.581604 4284.337891,748.688660 
	C4263.964844,730.136536 4259.962891,700.515015 4275.809082,677.884766 
	C4291.089844,656.062195 4307.562500,635.072327 4323.596680,613.780273 
	C4368.895996,553.624939 4413.854980,493.207733 4459.687012,433.460785 
	C4495.456543,386.831390 4543.228516,361.623962 4602.221680,360.493652 
	C4661.197266,359.363586 4720.203613,359.806732 4779.196777,359.701843 
	C4835.863281,359.601074 4892.529785,359.602692 4949.195801,359.773163 
	C4957.144043,359.797089 4965.281738,360.162903 4973.001465,361.868103 
	C5007.428223,369.473236 5025.922363,409.556641 5007.718750,439.679932 
	C4996.055176,458.980957 4981.329590,476.451965 4967.599121,494.455505 
	C4965.936523,496.635559 4961.970703,497.874664 4958.977051,498.066895 
	C4951.008301,498.578552 4942.987305,498.280396 4933.990234,498.304382 
z"/>
<path fill="#3277BD" opacity="1.000000" stroke="none" 
	d="
M3928.191406,762.304321 
	C3908.761963,762.218811 3911.468750,762.990906 3907.720703,746.950989 
	C3894.385498,689.880432 3881.228516,632.768188 3867.979248,575.677429 
	C3867.168457,572.183411 3866.139404,568.739990 3864.673096,563.259888 
	C3861.551025,566.848572 3859.364502,569.072632 3857.504639,571.542542 
	C3827.046875,611.985840 3796.645508,652.471252 3766.198486,692.922546 
	C3750.775391,713.413330 3735.134766,733.742798 3719.928223,754.392578 
	C3715.762939,760.048706 3711.068359,762.440857 3704.030762,762.402039 
	C3662.381104,762.172180 3620.729492,762.306763 3579.078369,762.258179 
	C3576.211670,762.254822 3573.345215,761.760437 3568.543213,761.314819 
	C3571.721924,756.542847 3573.854980,752.967224 3576.344482,749.659851 
	C3609.192871,706.013672 3642.109619,662.418945 3674.973877,618.784546 
	C3722.666748,555.462524 3770.320557,492.111389 3818.011963,428.788269 
	C3833.241211,408.567749 3848.726074,388.535797 3863.683594,368.116852 
	C3868.053955,362.150757 3872.815186,359.516357 3880.318359,359.555878 
	C3930.631348,359.820923 3980.946533,359.663788 4031.260986,359.716034 
	C4042.338379,359.727539 4042.507568,359.822266 4045.090332,370.928528 
	C4058.214111,427.364655 4071.229492,483.826019 4084.324463,540.268860 
	C4085.734131,546.345825 4087.413574,552.360107 4089.563477,560.719482 
	C4093.372803,556.389099 4096.038574,553.729126 4098.283203,550.751587 
	C4126.950195,512.712585 4155.541504,474.616852 4184.183594,436.559235 
	C4201.609375,413.405975 4219.222168,390.391907 4236.444336,367.089111 
	C4240.440918,361.681885 4244.980957,359.570129 4251.597168,359.600311 
	C4293.247070,359.790558 4334.898926,359.679108 4376.549805,359.716400 
	C4379.482910,359.719025 4382.416016,360.115295 4387.272461,360.468353 
	C4384.310547,365.120941 4382.327637,368.741699 4379.875000,372.009460 
	C4355.880859,403.976471 4331.800781,435.879181 4307.760254,467.810913 
	C4243.250977,553.493164 4178.752441,639.183594 4114.238281,724.861755 
	C4107.426270,733.908081 4100.088867,742.597046 4093.818848,752.001160 
	C4088.665039,759.731201 4082.487549,762.590942 4073.106934,762.504822 
	C4025.128418,762.064270 3977.143311,762.303162 3928.191406,762.304321 
z"/>
<path fill="#3277BD" opacity="1.000000" stroke="none" 
	d="
M2960.494629,634.509155 
	C2950.374756,648.370850 2939.970947,661.167542 2929.463867,676.791687 
	C2936.131836,677.193848 2940.291260,677.660095 2944.450928,677.663330 
	C3006.437744,677.710938 3068.424805,677.697449 3130.411621,677.698364 
	C3134.970703,677.698425 3139.529785,677.698303 3145.329834,677.698303 
	C3144.161865,681.140686 3143.967529,683.175598 3142.922607,684.576050 
	C3124.793701,708.873840 3106.531006,733.071655 3088.382568,757.354858 
	C3085.722900,760.913147 3082.362793,762.366821 3078.067383,762.262024 
	C3075.070312,762.188904 3072.069336,762.299683 3069.070068,762.299744 
	C2932.765381,762.302551 2796.460938,762.307251 2660.156250,762.279968 
	C2655.643799,762.279053 2651.131104,761.949829 2644.558838,761.693298 
	C2647.605713,757.056030 2649.379395,753.998840 2651.489746,751.195312 
	C2747.669922,623.446228 2843.910400,495.742920 2939.986328,367.915741 
	C2944.433594,361.998749 2949.243896,359.545380 2956.703369,359.555389 
	C3096.007080,359.742065 3235.311279,359.686249 3374.615234,359.723846 
	C3377.777100,359.724701 3380.938721,360.220001 3385.946533,360.639191 
	C3383.300537,364.834808 3381.785156,367.641571 3379.896484,370.169556 
	C3363.547852,392.055420 3346.950928,413.759094 3330.850342,435.825317 
	C3326.235107,442.150269 3320.989502,444.481110 3313.233643,444.451569 
	C3248.914795,444.206482 3184.594727,444.314972 3120.274902,444.323761 
	C3116.609375,444.324249 3112.832520,443.852661 3109.312744,444.586090 
	C3106.305908,445.212646 3102.645264,446.524872 3100.900635,448.787750 
	C3084.833496,469.625122 3069.111572,490.728729 3053.346924,511.797791 
	C3052.833984,512.483337 3052.934814,513.628235 3052.484131,515.892517 
	C3067.039307,516.789185 3081.225098,516.200745 3095.376221,516.304565 
	C3109.705811,516.409790 3124.036621,516.327820 3138.366943,516.327820 
	C3152.364014,516.327820 3166.361084,516.327820 3180.358154,516.327820 
	C3194.688477,516.327820 3209.018799,516.281860 3223.348877,516.340759 
	C3237.515869,516.398987 3251.704834,516.057068 3267.634521,516.684509 
	C3265.473633,520.812317 3264.597900,523.214905 3263.131104,525.175354 
	C3245.967529,548.115295 3228.583496,570.891785 3211.584961,593.952698 
	C3207.672119,599.260864 3202.912598,600.385986 3196.916748,600.363525 
	C3164.590820,600.242554 3132.263916,600.315308 3099.937500,600.318298 
	C3066.277832,600.321411 3032.615479,600.563782 2998.960693,600.158020 
	C2990.139160,600.051636 2983.866699,602.246094 2978.929443,609.979431 
	C2973.569824,618.374390 2966.963623,625.973572 2960.494629,634.509155 
z"/>
<path fill="#3277BD" opacity="1.000000" stroke="none" 
	d="
M3469.957031,413.966980 
	C3481.802490,398.223236 3493.443359,383.209656 3504.570801,367.824646 
	C3508.650879,362.183594 3513.118408,359.543213 3520.275391,359.566315 
	C3586.933838,359.781342 3653.593506,359.680786 3720.252686,359.717468 
	C3723.124512,359.719055 3725.996338,360.166687 3730.466797,360.540039 
	C3727.989990,364.417419 3726.445557,367.231201 3724.534912,369.769440 
	C3638.974365,483.431152 3553.382812,597.069763 3467.790039,710.707275 
	C3456.966309,725.077576 3445.891357,739.266052 3435.387451,753.865967 
	C3431.089600,759.839722 3426.346191,762.478638 3418.774902,762.447693 
	C3353.116699,762.180176 3287.457031,762.303711 3221.797607,762.270874 
	C3218.523193,762.269287 3215.248535,761.899048 3209.952881,761.577881 
	C3212.801025,756.808655 3214.587891,753.111755 3217.002930,749.884827 
	C3234.570312,726.411255 3252.282959,703.046265 3269.914551,679.620728 
	C3317.800537,615.999207 3365.658691,552.356628 3413.551025,488.739594 
	C3432.186035,463.986115 3450.881592,439.278503 3469.957031,413.966980 
z"/>
<path fill="#ADACAD" opacity="1.000000" stroke="none" 
	d="
M534.791870,1049.209961 
	C534.391541,1049.057251 534.195618,1048.775513 533.999695,1048.493774 
	C534.331848,1048.689575 534.664062,1048.885254 534.791870,1049.209961 
z"/>
<path fill="#939D94" opacity="1.000000" stroke="none" 
	d="
M149.332611,648.617798 
	C149.648483,648.665039 149.805496,649.119568 149.825775,649.981628 
	C149.490845,649.948303 149.319092,649.493591 149.332611,648.617798 
z"/>
<path fill="#417167" opacity="1.000000" stroke="none" 
	d="
M1295.270874,760.400269 
	C1295.365356,760.186523 1295.371826,761.083496 1295.370605,761.529968 
	C1295.135010,761.544495 1295.070801,761.090393 1295.270874,760.400269 
z"/>
<path fill="#47704C" opacity="1.000000" stroke="none" 
	d="
M734.503052,771.561523 
	C753.164246,806.599548 771.464539,840.995789 789.798401,875.374023 
	C795.141418,885.392822 794.948914,885.320984 787.013000,893.010193 
	C757.804993,921.310181 724.765076,943.971558 687.983154,961.277832 
	C654.563232,977.002197 619.504395,987.095032 582.911865,991.681580 
	C524.373108,999.018738 467.348419,992.592651 412.032257,971.889832 
	C380.968597,960.263794 352.098663,944.548523 325.388092,924.883972 
	C323.808380,923.721008 322.451782,922.255127 320.024841,920.053345 
	C325.535736,907.800903 330.865295,895.351440 336.674896,883.130188 
	C382.307129,787.136047 439.180267,697.946045 501.118103,611.828674 
	C552.491760,540.399658 608.032837,472.313812 666.276428,406.417572 
	C684.126221,386.222534 702.583923,366.563965 720.828796,346.720032 
	C724.174988,343.080597 727.837341,339.731903 731.216553,336.384918 
	C881.432434,427.492859 938.492004,631.714905 861.344788,786.862854 
	C829.901978,774.382385 800.279175,758.156128 771.365417,740.637939 
	C742.664673,723.248779 715.935547,703.020264 690.523132,681.006226 
	C689.929504,681.410522 689.335876,681.814819 688.742249,682.219116 
	C689.124207,684.176514 689.060730,686.369934 689.954529,688.055969 
	C704.616516,715.712830 719.399231,743.305664 734.503052,771.561523 
M687.439575,679.156982 
	C687.439575,679.156982 686.797363,678.862305 686.797363,678.862305 
	C686.797363,678.862305 686.948792,679.563538 687.439575,679.156982 
z"/>
<path fill="#47704C" opacity="1.000000" stroke="none" 
	d="
M300.160461,780.178589 
	C285.747528,806.109802 271.675873,831.394287 257.596832,856.692017 
	C240.129303,843.757324 198.994690,774.429260 186.556564,709.659485 
	C167.717178,611.555786 183.843277,519.714783 239.937485,436.823822 
	C352.964142,269.803253 556.814941,244.789642 691.167725,313.717834 
	C537.156860,449.409485 404.844940,602.797852 300.160461,780.178589 
z"/>
<path fill="#47704D" opacity="1.000000" stroke="none" 
	d="
M1625.642944,615.609741 
	C1638.474365,598.852356 1632.485840,600.416809 1655.314941,600.326721 
	C1673.948853,600.253235 1692.583740,600.269897 1711.217529,600.361023 
	C1714.853516,600.378784 1718.567505,600.541382 1722.106934,601.291016 
	C1735.223389,604.069031 1738.918945,613.134155 1731.470337,624.067017 
	C1728.663696,628.186768 1725.537964,632.090271 1722.532959,636.073669 
	C1716.923950,643.509033 1711.402832,651.013916 1705.653076,658.339172 
	C1695.796265,670.896790 1682.743774,677.463501 1666.823120,677.606384 
	C1641.202881,677.836426 1615.579224,677.709412 1589.957275,677.637268 
	C1587.471436,677.630310 1584.987427,676.950378 1582.325684,676.556702 
	C1582.548828,674.789246 1582.340698,673.603455 1582.834351,672.939087 
	C1596.915039,653.987122 1611.066406,635.087524 1625.642944,615.609741 
z"/>
<path fill="#47704D" opacity="1.000000" stroke="none" 
	d="
M1836.664795,444.557281 
	C1839.149780,445.027161 1840.817627,445.268707 1842.381104,445.811157 
	C1852.175049,449.209351 1856.027832,458.031647 1850.153564,466.299927 
	C1841.306885,478.752014 1831.863525,490.849915 1821.839233,502.372437 
	C1814.631592,510.657440 1804.649658,515.370667 1793.595459,515.578796 
	C1764.980835,516.117493 1736.353882,516.014771 1707.731812,516.103149 
	C1706.509277,516.106934 1705.284668,515.461609 1702.923584,514.799927 
	C1704.628418,511.796387 1705.777832,509.163269 1707.450317,506.920105 
	C1721.174194,488.514648 1735.075928,470.241516 1748.735229,451.788727 
	C1752.618408,446.542786 1757.153320,444.103088 1763.891479,444.204773 
	C1787.856567,444.566559 1811.829346,444.421326 1836.664795,444.557281 
z"/>
<path fill="#47704D" opacity="1.000000" stroke="none" 
	d="
M2390.045898,640.035889 
	C2385.422119,646.201355 2381.194092,651.774902 2376.993408,657.368958 
	C2367.129639,670.505554 2353.850098,677.281189 2337.570068,677.572693 
	C2318.581055,677.912598 2299.581543,677.664246 2280.586426,677.643921 
	C2278.925537,677.642151 2277.235352,677.598694 2275.608154,677.302734 
	C2264.203613,675.228210 2259.685303,665.472656 2266.207031,655.784790 
	C2272.896484,645.847107 2280.293701,636.380127 2287.505371,626.800537 
	C2319.761719,583.952515 2352.054443,541.131836 2384.353760,498.316223 
	C2391.375244,489.008484 2399.107178,480.167755 2405.407471,470.399506 
	C2416.743652,452.822540 2432.820801,444.732300 2453.196533,444.436005 
	C2470.188477,444.188934 2487.187256,444.309448 2504.181641,444.426666 
	C2507.138916,444.447052 2510.175781,444.957947 2513.029541,445.761627 
	C2522.305908,448.373932 2525.958252,456.989410 2521.326660,465.296844 
	C2519.877197,467.896515 2517.921631,470.223053 2516.119629,472.615845 
	C2474.237549,528.233215 2432.344971,583.842529 2390.045898,640.035889 
z"/>
<path fill="#ADACAD" opacity="1.000000" stroke="none" 
	d="
M687.194214,679.360229 
	C686.948792,679.563538 686.797363,678.862305 686.797363,678.862305 
	C686.797363,678.862305 687.439575,679.156982 687.194214,679.360229 
z"/>
</svg>