<?xml version="1.0" standalone="no"?>
<!DOCTYPE svg PUBLIC "-//W3C//DTD SVG 20010904//EN"
 "http://www.w3.org/TR/2001/REC-SVG-20010904/DTD/svg10.dtd">
<svg version="1.0" xmlns="http://www.w3.org/2000/svg"
 width="2688.000000pt" height="1512.000000pt" viewBox="0 0 2000.000000 1000.000000"
 preserveAspectRatio="xMidYMid meet">

<g transform="translate(0.000000,2000.000000) scale(0.100000,-0.100000)"
fill="#989A9D" stroke="none">
<path d="M21395 21239 c-1427 -864 -2880 -1923 -4186 -3051 l-57 -49 -170 85
c-577 289 -1134 477 -1772 600 -1081 208 -2201 172 -3236 -105 -2328 -621
-4208 -2413 -4983 -4749 -150 -454 -252 -894 -315 -1363 -23 -164 -33 -269
-66 -677 -13 -163 -13 -550 0 -715 41 -498 54 -618 101 -895 204 -1207 732
-2388 1508 -3369 58 -74 111 -142 118 -152 10 -14 -5 -55 -94 -255 -1248
-2814 -1432 -4984 -496 -5885 279 -268 577 -390 993 -406 678 -25 1530 286
2422 883 460 308 891 667 1328 1104 365 365 619 656 914 1050 132 176 332 461
371 530 5 8 -20 -10 -56 -41 -370 -322 -825 -669 -1224 -934 -747 -495 -1367
-781 -1935 -892 -120 -24 -160 -27 -360 -27 -181 -1 -241 3 -310 17 -122 26
-238 68 -327 118 -102 57 -261 214 -327 321 -322 524 -278 1451 131 2748 58
185 181 532 192 543 5 5 80 -40 168 -101 1552 -1078 3381 -1513 5193 -1236
1361 209 2664 823 3750 1768 63 55 154 138 202 185 49 46 90 83 92 80 3 -2 61
-105 131 -229 69 -124 131 -229 136 -234 5 -6 68 -5 166 3 1813 142 4922 285
9958 456 688 23 2333 75 2394 75 l55 0 -29 30 c-37 39 -100 67 -210 95 -257
65 -607 103 -1800 195 -963 75 -1383 110 -1940 166 -2925 290 -5226 784 -7240
1554 -104 40 -194 76 -199 80 -4 5 15 66 44 136 558 1373 732 2661 539 4008
-184 1286 -714 2520 -1528 3556 -174 222 -334 403 -551 624 -306 312 -564 538
-869 764 -79 59 -155 117 -170 128 l-26 22 120 128 c883 942 2038 2033 3458
3267 86 75 154 137 150 137 -5 -1 -75 -42 -158 -91z m-7080 -3119 c584 -45
1097 -150 1661 -340 196 -67 481 -177 489 -189 2 -5 -116 -118 -263 -253
-1870 -1717 -3578 -3647 -5044 -5698 -871 -1219 -1616 -2431 -2244 -3647 -49
-95 -92 -173 -95 -173 -3 0 -46 51 -96 113 -639 797 -1034 1728 -1182 2787
-72 515 -79 1125 -20 1655 220 1977 1325 3750 2989 4797 923 580 1966 906
3065 958 189 9 556 4 740 -10z m2947 -1151 c1732 -1162 2771 -3051 2837 -5156
29 -957 -119 -1831 -451 -2648 -66 -163 -142 -324 -152 -325 -15 0 -702 352
-886 455 -715 400 -1302 802 -1831 1257 -79 67 -177 154 -218 193 -41 38 -71
61 -68 51 4 -10 439 -838 967 -1838 528 -1001 960 -1824 960 -1828 0 -22 -353
-350 -550 -511 -1731 -1412 -3974 -1841 -6030 -1152 -497 166 -1004 403 -1470
686 -120 73 -411 265 -492 324 l-47 34 20 47 c107 248 430 914 624 1284 1483
2825 3666 5877 6240 8723 399 442 429 473 442 469 7 -2 54 -31 105 -65z"/>
</g>
</svg>
