<?xml version="1.0" standalone="no"?>
<!DOCTYPE svg PUBLIC "-//W3C//DTD SVG 20010904//EN"
 "http://www.w3.org/TR/2001/REC-SVG-20010904/DTD/svg10.dtd">
<svg version="1.0" xmlns="http://www.w3.org/2000/svg"
 width="5148.000000pt" height="1368.000000pt" viewBox="0 0 5148.000000 1368.000000"
 preserveAspectRatio="xMidYMid meet">

<g transform="translate(0.000000,1368.000000) scale(0.100000,-0.100000)"
fill="#000000" stroke="none">
<path d="M15788 9893 c-148 -199 -587 -781 -1158 -1538 -288 -382 -675 -896
-1299 -1725 l-402 -535 2348 -3 c1678 -2 2375 0 2443 8 463 54 891 278 1185
619 125 144 539 701 564 756 69 157 33 352 -88 470 -23 21 -41 42 -41 47 0 4
19 12 43 18 356 94 702 308 932 579 124 146 517 673 548 734 79 157 77 334 -5
491 -43 82 -146 182 -229 224 -133 66 22 62 -2445 62 l-2241 0 -155 -207z
m2649 -653 c63 -38 84 -128 45 -194 -39 -66 -259 -351 -296 -384 -59 -52 -108
-79 -182 -101 -66 -21 -87 -21 -558 -19 l-489 3 199 265 c110 146 231 307 269
357 l70 93 455 0 c434 0 456 -1 487 -20z m-1183 -1556 c38 -19 76 -77 76 -118
0 -46 -24 -88 -136 -237 -183 -244 -209 -274 -281 -322 -127 -83 -113 -81
-593 -85 -234 -2 -460 -2 -504 0 l-79 3 198 265 c109 146 240 320 292 388 l94
122 449 0 c395 0 453 -2 484 -16z"/>
<path d="M23402 10089 c-338 -32 -665 -157 -927 -353 -208 -155 -273 -228
-635 -711 -145 -192 -549 -729 -899 -1193 -350 -463 -657 -875 -684 -915 -115
-173 -122 -380 -21 -562 66 -119 214 -227 348 -255 36 -7 637 -9 1966 -7 1912
3 1915 3 2010 24 157 35 213 52 320 93 342 134 592 323 829 630 54 69 446 589
873 1155 427 567 810 1075 853 1130 153 200 188 281 188 440 0 152 -45 264
-152 370 -78 79 -190 138 -291 154 -78 13 -3649 13 -3778 0z m1737 -847 c64
-34 89 -119 55 -184 -25 -48 -1450 -1937 -1502 -1991 -54 -56 -105 -88 -188
-119 -56 -21 -77 -22 -419 -26 -238 -2 -372 0 -396 7 -77 23 -121 105 -96 178
17 51 1433 1929 1517 2013 66 67 127 103 209 125 33 10 150 13 416 14 341 1
373 0 404 -17z"/>
<path d="M28415 8744 c-561 -746 -1231 -1635 -1488 -1977 -258 -342 -478 -634
-489 -649 l-19 -28 2193 0 2193 1 305 405 c168 223 307 410 308 415 2 5 -440
9 -1087 9 -762 0 -1091 3 -1091 11 0 5 129 181 286 390 l286 379 1102 0 1103
0 311 415 c172 228 312 417 312 420 0 3 -493 6 -1096 7 l-1096 3 268 357 269
357 1105 3 1105 3 282 375 c156 206 297 394 313 418 l31 42 -2193 0 -2193 -1
-1020 -1355z"/>
<path d="M33576 8100 c-828 -1099 -1506 -2002 -1506 -2005 0 -3 489 -5 1088
-5 l1087 0 1500 1991 c825 1096 1504 1998 1508 2005 7 12 -161 14 -1081 14
l-1089 0 -1507 -2000z"/>
<path d="M38169 9427 c-279 -369 -957 -1270 -1508 -2001 -550 -731 -1001
-1330 -1001 -1332 0 -2 323 -4 718 -4 l717 0 690 917 c869 1155 826 1099 835
1082 4 -8 110 -461 236 -1006 l229 -993 865 0 865 0 707 938 c388 515 735 975
771 1022 144 190 1524 2026 1531 2038 6 9 -139 12 -711 12 l-718 0 -748 -993
c-876 -1164 -784 -1043 -791 -1036 -4 3 -110 453 -236 1000 -127 547 -233
1002 -236 1012 -5 16 -55 17 -857 17 l-852 0 -506 -673z"/>
<path d="M45873 10089 c-483 -47 -918 -272 -1234 -639 -31 -36 -242 -312 -470
-615 -546 -726 -1159 -1540 -1313 -1742 -180 -238 -216 -316 -216 -471 1 -254
180 -475 425 -522 44 -8 559 -10 1965 -8 l1905 4 123 27 c316 70 586 199 817
391 146 121 248 241 582 689 l155 207 257 1 256 0 305 406 c168 223 309 411
313 419 7 12 -190 14 -1335 14 l-1343 0 -430 -572 c-236 -314 -451 -592 -476
-617 -26 -26 -74 -62 -108 -79 -103 -55 -157 -62 -534 -62 -371 0 -381 1 -430
59 -32 38 -37 103 -12 152 13 24 1109 1483 1401 1865 102 133 142 173 212 208
106 54 127 56 526 56 350 0 373 -1 403 -20 41 -25 63 -68 63 -123 0 -35 -8
-55 -40 -101 -33 -46 -156 -212 -203 -273 -8 -10 210 -13 1080 -13 l1090 0
196 259 c108 143 212 288 231 323 158 289 19 643 -299 758 l-70 25 -1855 1
c-1020 1 -1892 -2 -1937 -7z"/>
</g>
</svg>
