<?xml version="1.0" standalone="no"?>
<!DOCTYPE svg PUBLIC "-//W3C//DTD SVG 20010904//EN"
 "http://www.w3.org/TR/2001/REC-SVG-20010904/DTD/svg10.dtd">
<svg version="1.0" xmlns="http://www.w3.org/2000/svg"
 width="276.000000pt" height="354.000000pt" viewBox="0 0 276.000000 354.000000"
 preserveAspectRatio="xMidYMid meet">

<g transform="translate(0.000000,442.000000) scale(0.100000,-0.100000)"
fill="blue" stroke="none">
<path d="M1585 4018 c-309 -21 -585 -148 -810 -373 -148 -148 -245 -304 -309
-495 -55 -164 -69 -267 -63 -460 5 -186 29 -302 94 -456 65 -156 219 -382 251
-369 8 3 181 50 385 106 544 147 826 243 987 334 77 43 93 57 133 110 23 32
28 35 22 15 -13 -50 -109 -240 -131 -260 -51 -49 -280 -129 -579 -204 -149
-37 -562 -126 -683 -147 -40 -7 -75 -16 -78 -20 -2 -4 32 -36 76 -71 412 -330
985 -375 1445 -113 217 124 403 320 514 543 46 91 98 252 117 362 24 141 15
391 -19 520 -23 90 -77 239 -96 269 -8 12 -128 -9 -738 -129 -400 -78 -771
-156 -823 -172 -118 -38 -218 -87 -270 -134 -22 -20 -40 -34 -40 -30 0 3 23
57 50 121 28 63 73 168 100 233 43 100 58 125 106 170 116 110 395 221 912
362 141 39 258 72 260 74 7 7 -77 57 -163 97 -208 97 -410 134 -650 117z"/>
</g>
</svg>
