<?xml version="1.0" standalone="no"?>
<!DOCTYPE svg PUBLIC "-//W3C//DTD SVG 20010904//EN"
 "http://www.w3.org/TR/2001/REC-SVG-20010904/DTD/svg10.dtd">
<svg version="1.0" xmlns="http://www.w3.org/2000/svg"
 width="276.000000pt" height="354.000000pt" viewBox="0 0 276.000000 354.000000"
 preserveAspectRatio="xMidYMid meet">

<g transform="translate(0.000000,442.000000) scale(0.100000,-0.100000)"
fill="#000000" stroke="none">
<path d="M1585 4018 c-309 -21 -585 -148 -810 -373 -148 -148 -245 -304 -309
-495 -55 -164 -69 -267 -63 -460 5 -186 29 -302 94 -456 65 -156 219 -382 251
-369 8 3 181 50 385 106 544 147 826 243 987 334 77 43 93 57 133 110 23 32
28 35 22 15 -13 -50 -109 -240 -131 -260 -51 -49 -280 -129 -579 -204 -149
-37 -562 -126 -683 -147 -40 -7 -75 -16 -78 -20 -2 -4 32 -36 76 -71 412 -330
985 -375 1445 -113 217 124 403 320 514 543 46 91 98 252 117 362 24 141 15
391 -19 520 -23 90 -77 239 -96 269 -8 12 -128 -9 -738 -129 -400 -78 -771
-156 -823 -172 -118 -38 -218 -87 -270 -134 -22 -20 -40 -34 -40 -30 0 3 23
57 50 121 28 63 73 168 100 233 43 100 58 125 106 170 116 110 395 221 912
362 141 39 258 72 260 74 7 7 -77 57 -163 97 -208 97 -410 134 -650 117z"/>
<path d="M787 1396 c-151 -41 -235 -213 -168 -344 37 -73 113 -118 261 -154
93 -23 169 -58 188 -88 44 -71 10 -169 -73 -210 -79 -39 -228 -33 -388 16 -16
5 -18 0 -15 -47 l3 -54 75 -18 c100 -24 248 -26 321 -4 123 37 189 122 189
245 0 139 -69 203 -273 255 -162 41 -213 80 -211 162 1 52 31 103 76 130 62
36 203 32 356 -11 21 -6 22 -3 22 44 0 51 0 51 -38 62 -123 33 -241 38 -325
16z"/>
<path d="M1310 1220 l0 -89 -62 -3 -63 -3 -3 -37 -3 -38 65 0 66 0 0 -202 c0
-214 7 -265 37 -307 40 -55 133 -77 236 -57 36 7 37 8 37 52 0 38 -3 45 -17
40 -87 -25 -154 -12 -178 34 -12 23 -15 72 -15 235 l0 205 95 0 95 0 0 40 0
40 -95 0 -95 0 0 90 0 90 -50 0 -50 0 0 -90z"/>
<path d="M1835 1145 c-5 -2 -36 -9 -67 -15 l-58 -11 0 -46 c0 -42 2 -45 23
-39 112 33 229 27 287 -14 31 -22 50 -71 50 -131 l0 -37 -51 15 c-67 20 -200
14 -249 -11 -80 -41 -113 -93 -113 -178 0 -75 38 -141 102 -175 78 -41 198
-27 276 32 l34 26 7 -35 c6 -35 8 -36 50 -36 l44 0 0 215 c0 117 -5 237 -11
264 -24 112 -105 172 -238 178 -42 1 -80 1 -86 -2z m180 -358 l50 -12 3 -67
c3 -63 2 -67 -27 -87 -81 -58 -183 -78 -230 -45 -50 35 -67 132 -30 178 34 44
128 57 234 33z"/>
<path d="M2501 1140 c-19 -4 -60 -26 -92 -49 -32 -22 -60 -38 -62 -33 -3 4 -8
22 -12 40 -6 29 -10 32 -46 32 l-39 0 0 -320 0 -320 50 0 50 0 0 235 0 235 49
38 c56 44 125 67 174 58 41 -8 84 -51 97 -97 6 -18 10 -132 10 -251 l0 -218
50 0 50 0 0 214 c0 236 -8 302 -45 358 -43 65 -148 100 -234 78z"/>
</g>
</svg>
